HIERARCHY
ROOT Hips
{
	OFFSET	0.00	0.00	0.00
	CHANNELS 6 Xposition Yposition Zposition Zrotation Xrotation Yrotation
	JOINT LeftUpLeg
	{
		OFFSET	 0.126116	-0.014019	-0.065224
		CHANNELS 3 Zrotation Xrotation Yrotation
		JOINT LeftLeg
		{
			OFFSET	 0.000000	 0.000000	 0.569914
			CHANNELS 3 Zrotation Xrotation Yrotation
			JOINT LeftFoot
			{
				OFFSET	 0.000000	 0.000000	 0.544423
				CHANNELS 3 Zrotation Xrotation Yrotation
				JOINT LeftToeBase
				{
					OFFSET	 0.000000	 0.000000	 0.207117
					CHANNELS 3 Zrotation Xrotation Yrotation
					End Site
					{
						OFFSET	 0.000000	 0.000000	 0.207117
					}
				}
			}
		}
	}
	JOINT RightUpLeg
	{
		OFFSET	-0.124023	-0.008373	-0.065224
		CHANNELS 3 Zrotation Xrotation Yrotation
		JOINT RightLeg
		{
			OFFSET	 0.000000	 0.000000	 0.570047
			CHANNELS 3 Zrotation Xrotation Yrotation
			JOINT RightFoot
			{
				OFFSET	 0.000000	 0.000000	 0.544354
				CHANNELS 3 Zrotation Xrotation Yrotation
				JOINT RightToeBase
				{
					OFFSET	 0.000000	 0.000000	 0.207540
					CHANNELS 3 Zrotation Xrotation Yrotation
					End Site
					{
						OFFSET	 0.000000	 0.000000	 0.207540
					}
				}
			}
		}
	}
	JOINT Spine
	{
		OFFSET	 0.000184	-0.007763	 0.117403
		CHANNELS 3 Zrotation Xrotation Yrotation
		JOINT Spine1
		{
			OFFSET	 0.000000	 0.000000	 0.137269
			CHANNELS 3 Zrotation Xrotation Yrotation
			JOINT Spine2
			{
				OFFSET	 0.000000	 0.000000	 0.156879
				CHANNELS 3 Zrotation Xrotation Yrotation
				JOINT LeftShoulder
				{
					OFFSET	 0.080501	-0.002496	 0.160144
					CHANNELS 3 Zrotation Xrotation Yrotation
					JOINT LeftArm
					{
						OFFSET	 0.000000	 0.000000	 0.164363
						CHANNELS 3 Zrotation Xrotation Yrotation
						JOINT LeftForeArm
						{
							OFFSET	 0.000000	 0.000000	 0.364576
							CHANNELS 3 Zrotation Xrotation Yrotation
							JOINT LeftHand
							{
								OFFSET	 0.000000	 0.000000	 0.360812
								CHANNELS 3 Zrotation Xrotation Yrotation
								JOINT LeftHandIndex1
								{
									OFFSET	 0.000000	 0.000000	 0.086006
									CHANNELS 3 Zrotation Xrotation Yrotation
									JOINT LeftHandIndex2
									{
										OFFSET	 0.000000	 0.000000	 0.047236
										CHANNELS 3 Zrotation Xrotation Yrotation
										JOINT LeftHandIndex3
										{
											OFFSET	-0.004284	-0.000551	 0.038166
											CHANNELS 3 Zrotation Xrotation Yrotation
											End Site
											{
												OFFSET	-0.004284	-0.000551	 0.038166
											}
										}
									}
								}
							}
						}
					}
				}
				JOINT Neck
				{
					OFFSET	 0.000000	 0.000000	 0.176489
					CHANNELS 3 Zrotation Xrotation Yrotation
					JOINT Head
					{
						OFFSET	 0.000000	-0.001747	 0.077940
						CHANNELS 3 Zrotation Xrotation Yrotation
						End Site
						{
							OFFSET	 0.000000	-0.001747	 0.077940
						}
					}
				}
				JOINT RightShoulder
				{
					OFFSET	-0.080363	 0.000306	 0.159706
					CHANNELS 3 Zrotation Xrotation Yrotation
					JOINT RightArm
					{
						OFFSET	 0.000000	 0.000000	 0.164196
						CHANNELS 3 Zrotation Xrotation Yrotation
						JOINT RightForeArm
						{
							OFFSET	 0.000000	 0.000000	 0.365611
							CHANNELS 3 Zrotation Xrotation Yrotation
							JOINT RightHand
							{
								OFFSET	 0.000000	 0.000000	 0.360648
								CHANNELS 3 Zrotation Xrotation Yrotation
								JOINT RightHandIndex1
								{
									OFFSET	 0.000000	 0.000000	 0.069977
									CHANNELS 3 Zrotation Xrotation Yrotation
									JOINT RightHandIndex2
									{
										OFFSET	 0.000000	 0.000000	 0.052305
										CHANNELS 3 Zrotation Xrotation Yrotation
										JOINT RightHandIndex3
										{
											OFFSET	 0.009002	-0.000782	 0.042196
											CHANNELS 3 Zrotation Xrotation Yrotation
											End Site
											{
												OFFSET	 0.009002	-0.000782	 0.042196
											}
										}
									}
								}
							}
						}
					}
				}
			}
		}
	}
}
MOTION
Frames:    12
Frame Time: 0.03333334
 0.000259	 0.046448	 1.271400	-0.043478	 3.234812	 0.791876	 11.531850	-8.811602	 177.346400	 2.201228	-16.518080	 0.744756	 0.507866	 72.246380	-0.608458	-2.385833	 28.452750	 0.000004	-4.205818	-7.909211	-178.228400	-0.720148	-14.379160	 1.101232	 5.595595	 71.020600	 0.705767	 2.384659	 28.388700	-0.000001	 1.322344	 7.903814	-0.415528	 1.498694	-8.350795	 0.337708	-3.862376	 12.400260	 0.972158	-90.997140	 68.627590	-177.447900	-5.928824	-0.118160	-21.868800	 25.079290	-0.119187	-0.825852	-6.582628	-10.598390	-4.420898	-2.027600	 6.559038	 9.033609	-5.188889	 0.308190	 3.541030	-5.234859	 0.342567	 0.430617	 4.695137	 20.887690	-7.662941	-8.930083	-15.542080	 1.596857	 88.767090	 66.999480	 176.891800	 10.105400	 7.587208	 14.535100	-27.200620	-5.086784	 14.383110	 3.498650	-10.054180	 5.566448	 1.803333	 3.979147	-15.098590	 4.898592	 3.004813	-9.310344	 5.224449	 0.395017	 2.014677
-0.000678	 0.055088	 1.266335	 0.104613	 5.024018	 0.994086	 11.786880	-12.872740	 177.517500	 2.306508	-19.885070	 0.910363	 2.736498	 73.495290	-3.055625	-2.385833	 28.452760	 0.000004	-4.993340	-11.831020	-178.825700	-0.770350	-17.638420	 1.328294	 4.635057	 72.230830	 1.940434	 2.384659	 28.388700	-0.000001	-0.210182	 8.881605	-0.497800	 1.552123	-12.397630	 0.333664	-4.138262	 17.001350	 1.360459	-90.825450	 66.985400	-177.197800	-4.284680	 0.147137	-24.859640	 22.901250	-0.085525	-1.272075	-4.562887	-13.009030	-5.594351	-2.027600	 6.559038	 9.033609	-5.188889	 0.308190	 3.541030	-5.234859	 0.342567	 0.430617	 4.649236	 25.020390	-8.749081	-8.480122	-18.516640	 1.337691	 88.417190	 64.024150	 176.421400	 8.688385	 7.784965	 16.848630	-25.970060	-5.073074	 15.805230	 0.459798	-11.122440	 5.083316	 1.803333	 3.979147	-15.098590	 4.898592	 3.004813	-9.310344	 5.224449	 0.395017	 2.014677
-0.001548	 0.067306	 1.260870	 0.351895	 7.368691	 1.202054	 11.770350	-17.636910	 177.823700	 2.242496	-23.092630	 1.043556	 6.065490	 74.344990	-6.632824	-2.385832	 28.452790	-0.000001	-5.960014	-16.309930	-179.566200	-1.208208	-20.478020	 1.379634	 3.172740	 73.094680	 4.154557	 2.384659	 28.388700	-0.000001	-1.891080	 9.402553	-0.652541	 1.617508	-15.998960	 0.483776	-4.541297	 20.571940	 1.662470	-91.091240	 65.267970	-178.156800	-2.412764	 1.255029	-26.597070	 19.585430	-0.027142	-1.770143	-4.216143	-14.744530	-7.340065	-2.027600	 6.559038	 9.033609	-5.188889	 0.308190	 3.541030	-5.234859	 0.342567	 0.430617	 4.056309	 26.716050	-8.802766	-8.092007	-19.864280	 0.959581	 88.613880	 61.516100	 177.228700	 5.652899	 8.683525	 17.602430	-23.952880	-4.820940	 17.484030	-2.139654	-11.812100	 5.356468	 1.803333	 3.979147	-15.098590	 4.898592	 3.004813	-9.310344	 5.224449	 0.395017	 2.014677
-0.002075	 0.086305	 1.253449	 0.768736	 10.757780	 1.229615	 11.658660	-24.153750	 178.641400	 2.230284	-26.894850	 1.197984	 11.220360	 74.794280	-12.232580	-2.385832	 28.452790	-0.000001	-6.999879	-22.585060	 179.585800	-1.452608	-23.897990	 1.498076	 0.239924	 73.853660	 7.860174	 2.384659	 28.388700	-0.000001	-4.096481	 9.431917	-0.730054	 1.790109	-19.356340	 0.650900	-4.894145	 23.357510	 2.220793	-92.213650	 64.961860	 178.839800	-0.757847	 4.882372	-26.317580	 17.664030	 0.048292	-2.396226	-3.641437	-15.743760	-8.784717	-2.027600	 6.559038	 9.033609	-5.188889	 0.308190	 3.541030	-5.234859	 0.342567	 0.430617	 3.320974	 25.979800	-8.903779	-7.561737	-19.826920	 0.644490	 89.685870	 60.503890	 179.779500	 1.456648	 11.531930	 15.257540	-21.405750	-4.936956	 21.697800	-4.228845	-12.719550	 5.623558	 1.803333	 3.979147	-15.098590	 4.898592	 3.004813	-9.310344	 5.224449	 0.395017	 2.014677
-0.004060	 0.111605	 1.247199	 1.910248	 15.686360	 1.239439	 10.579870	-32.032200	 179.562100	 2.981374	-29.228610	 1.660668	 15.318370	 73.745380	-17.666830	-2.385833	 28.452760	 0.000004	-8.774234	-30.117110	 178.131700	-1.130224	-26.094560	 1.768815	-4.949609	 73.183480	 13.582640	 2.384659	 28.388700	-0.000001	-6.594696	 8.701734	-0.723794	 1.439485	-21.420760	 0.582952	-5.116813	 24.177320	 2.349175	-93.358100	 65.276510	 175.742500	 1.148245	 9.534558	-26.463090	 16.847090	 0.141780	-3.045114	-2.504565	-15.919260	-9.342788	-2.027600	 6.559038	 9.033609	-5.188889	 0.308190	 3.541030	-5.234859	 0.342567	 0.430617	 2.756836	 24.556230	-8.602365	-7.095722	-19.481280	 0.211326	 90.940770	 60.505300	-177.344800	-3.123334	 15.252650	 14.305870	-18.718850	-4.375179	 24.790340	-5.272519	-13.310550	 6.092323	 1.803333	 3.979147	-15.098590	 4.898592	 3.004813	-9.310344	 5.224449	 0.395017	 2.014677
-0.008041	 0.138740	 1.240592	 3.715418	 20.902630	 0.957169	 8.474915	-39.734860	-179.911700	 4.026711	-30.598750	 2.265086	 16.832790	 71.733840	-20.832810	-2.385833	 28.452760	 0.000004	-11.258990	-37.665040	 176.370300	-1.517881	-28.314180	 1.722760	-8.728746	 72.041630	 18.620140	 2.384659	 28.388700	-0.000001	-9.244810	 8.576429	-0.734902	 0.585166	-21.485500	 0.613220	-5.203751	 23.528390	 1.739001	-94.192600	 65.935670	 173.282100	 3.007786	 13.387320	-28.290470	 16.006570	 0.265348	-3.706389	-1.650953	-16.081080	-9.756607	-2.027600	 6.559038	 9.033609	-5.188889	 0.308190	 3.541030	-5.234859	 0.342567	 0.430617	 2.294680	 23.845370	-7.177657	-6.880714	-19.703220	-0.697992	 92.029760	 61.375390	-174.696700	-7.456418	 19.357130	 16.068320	-16.858770	-3.912437	 27.813850	-5.956733	-13.372660	 6.622802	 1.803333	 3.979147	-15.098590	 4.898592	 3.004813	-9.310344	 5.224449	 0.395017	 2.014677
-0.012174	 0.157833	 1.232091	 4.431402	 23.041700	 0.646595	 7.796346	-43.944530	-179.724000	 4.265730	-33.041080	 2.556963	 19.944980	 72.149660	-24.625710	-2.385833	 28.452750	 0.000004	-12.566900	-42.217840	 175.456600	-1.535234	-32.077870	 1.919548	-12.605990	 73.647740	 23.085170	 2.384659	 28.388700	-0.000001	-11.391480	 11.016380	-0.744441	 0.199450	-18.404420	 0.678977	-4.847398	 22.818990	 1.223666	-94.561840	 67.963270	 171.291900	 3.650893	 15.603830	-32.052940	 15.364660	 0.417851	-4.377742	-0.984349	-16.787820	-9.950117	-2.027600	 6.559038	 9.033609	-5.188889	 0.308190	 3.541030	-5.234859	 0.342567	 0.430617	 1.624509	 22.830560	-6.148250	-6.495780	-19.950520	-1.384966	 92.723080	 62.412280	-172.794000	-9.673265	 22.486960	 20.005690	-15.066840	-3.576985	 32.676390	-5.104441	-14.130640	 7.516457	 1.803333	 3.979147	-15.098590	 4.898592	 3.004813	-9.310344	 5.224449	 0.395017	 2.014677
-0.015124	 0.185054	 1.221081	 3.557465	 25.223720	 0.480008	 9.159648	-49.038660	-178.564200	 4.439221	-35.976420	 2.857008	 23.135480	 71.869840	-28.491220	-2.385833	 28.452750	 0.000004	-11.544910	-47.832290	 175.249600	-2.251802	-35.377660	 1.676741	-14.346590	 73.512070	 26.250060	 2.384659	 28.388700	-0.000001	-13.140210	 12.968440	-0.775233	 0.635121	-14.209260	 0.949683	-4.144026	 21.529330	 1.150803	-94.453990	 70.847920	 169.467500	 3.439821	 16.973560	-36.650500	 13.874630	 0.615170	-5.084158	-1.508786	-18.751030	-10.142050	-2.027600	 6.559038	 9.033609	-5.188889	 0.308190	 3.541030	-5.234859	 0.342567	 0.430617	 0.965096	 21.257310	-5.912992	-5.866986	-19.883620	-1.537767	 93.139880	 64.674010	-170.942600	-11.191720	 25.577620	 26.313670	-13.085550	-2.471640	 35.148450	-2.902243	-15.896820	 8.750545	 1.803333	 3.979147	-15.098590	 4.898592	 3.004813	-9.310344	 5.224449	 0.395017	 2.014677
-0.016058	 0.212201	 1.215659	 3.640913	 27.509810	-0.567260	 10.032640	-52.929840	-176.425600	 5.045204	-35.535040	 3.180748	 22.196120	 69.787570	-28.446750	-2.385833	 28.452750	 0.000004	-9.543555	-52.859130	 176.726700	-4.263618	-35.961200	 0.518358	-10.987270	 70.940480	 25.268180	 2.384659	 28.388700	-0.000001	-14.696760	 13.809620	-1.260928	 1.115509	-10.072150	 2.355902	-3.835479	 20.392020	 0.258859	-95.262080	 69.464550	 167.876800	 0.910615	 14.064330	-39.219030	 12.188300	 0.851611	-5.802608	-2.031598	-20.070550	-10.228670	-2.027600	 6.559038	 9.033609	-5.188889	 0.308190	 3.541030	-5.234859	 0.342567	 0.430617	-0.107339	 23.217290	-3.802171	-5.700382	-22.773160	-3.488339	 93.771450	 65.008220	-169.072900	-11.036680	 24.229060	 29.252760	-11.059260	-1.262412	 39.381250	-1.473013	-16.513250	 9.802064	 1.803333	 3.979147	-15.098590	 4.898592	 3.004813	-9.310344	 5.224449	 0.395017	 2.014677
-0.019890	 0.235394	 1.204716	 4.065439	 30.144740	-2.815441	 12.061740	-56.634030	-172.676000	 5.745832	-35.140140	 3.556098	 21.523600	 68.441580	-28.835850	-2.385833	 28.452750	 0.000004	-5.748892	-58.470620	-179.532500	-6.769068	-37.892650	-0.996855	-9.056326	 69.793020	 25.858730	 2.384659	 28.388700	-0.000001	-16.377180	 14.311720	-0.734552	 1.065006	-4.268509	 1.656688	-3.722143	 18.050050	 1.644740	-95.744770	 69.494590	 166.179200	-1.185084	 11.725240	-42.655090	 10.253400	 1.165789	-6.626483	-2.979478	-21.309360	-10.034620	-2.027600	 6.559038	 9.033609	-5.188889	 0.308190	 3.541030	-5.234859	 0.342567	 0.430617	 0.183680	 26.051000	-5.144156	-4.641571	-26.662840	-3.517306	 95.307430	 62.364850	-166.523400	-9.257110	 19.846240	 30.418750	-8.976505	 0.486926	 41.457150	-0.569956	-16.277610	 10.959120	 1.803333	 3.979147	-15.098590	 4.898592	 3.004813	-9.310344	 5.224449	 0.395017	 2.014677
-0.025865	 0.251608	 1.184814	 4.208637	 32.142190	-4.583891	 14.559580	-61.417200	-169.348700	 6.056781	-38.884350	 4.074131	 22.889780	 69.085140	-30.753260	-2.385833	 28.452750	 0.000004	-1.016480	-64.500100	-175.387900	-8.306897	-43.120620	-2.161568	-9.366291	 70.658250	 27.658410	 2.384659	 28.388700	-0.000001	-17.401040	 14.804380	-0.167632	 0.967251	 1.954811	 0.870416	-3.421501	 15.356220	 2.621512	-96.149800	 69.492370	 164.786100	-3.161699	 9.238377	-45.879910	 8.761941	 1.487137	-7.362545	-3.432439	-21.668130	-9.842376	-2.027600	 6.559038	 9.033609	-5.188889	 0.308190	 3.541030	-5.234859	 0.342567	 0.430617	 0.527693	 28.054680	-5.700461	-3.790654	-29.620470	-3.452003	 96.453430	 60.417830	-164.825500	-7.285169	 15.108880	 33.052270	-6.828818	 2.368272	 41.765050	 0.327489	-16.054690	 11.797760	 1.803333	 3.979147	-15.098590	 4.898592	 3.004813	-9.310344	 5.224449	 0.395017	 2.014677
-0.031627	 0.262476	 1.156133	 4.768886	 33.785240	-5.979016	 17.850710	-66.962170	-165.621000	 6.392700	-44.906630	 4.818380	 26.610120	 70.858890	-34.563540	-2.385833	 28.452750	 0.000004	 5.258124	-70.632130	-169.787700	-9.465766	-49.757260	-3.299728	-9.848955	 72.413650	 29.303400	 2.384659	 28.388700	-0.000001	-18.276420	 15.128270	 0.098494	 0.425509	 7.115036	 0.905028	-3.058638	 13.209480	 3.043156	-97.367430	 67.294700	 163.317200	-4.636820	 3.434628	-47.294100	 6.047970	 1.821392	-8.020306	-3.871078	-20.645130	-10.100220	-2.027600	 6.559038	 9.033609	-5.188889	 0.308190	 3.541030	-5.234859	 0.342567	 0.430617	 0.957823	 29.249800	-6.246415	-2.876940	-31.661210	-3.009465	 97.305690	 59.072760	-163.597500	-5.244617	 11.053250	 38.089490	-4.717817	 3.967983	 39.866050	 1.149094	-16.011700	 12.174300	 1.803333	 3.979147	-15.098590	 4.898592	 3.004813	-9.310344	 5.224449	 0.395017	 2.014677
